<svg width="310" height="63" viewBox="0 0 310 63" fill="none" xmlns="http://www.w3.org/2000/svg">
<path d="M27.087 0C12.1266 0 0 12.1279 0 27.087C0 41.0097 10.5048 52.4664 24.024 53.9896V59.5943C24.024 62.615 27.6699 64.1344 29.8144 62.0091L42.5112 49.4302C42.565 49.3777 42.5829 49.3021 42.6329 49.2496C49.6045 44.3495 54.1689 36.2582 54.1689 27.087C54.1689 12.1279 42.0461 0 27.087 0ZM27.087 44.4007C18.8638 44.4007 12.174 38.2285 12.174 30.642C12.1897 29.9102 12.4914 29.2136 13.0145 28.7015C13.5377 28.1895 14.2405 27.9027 14.9725 27.9027C15.7046 27.9027 16.4074 28.1895 16.9306 28.7015C17.4537 29.2136 17.7554 29.9102 17.7711 30.642C17.7711 35.1424 21.9499 38.8037 27.087 38.8037C32.2241 38.8037 36.403 35.1424 36.403 30.642C36.425 29.9146 36.7294 29.2244 37.2517 28.7177C37.774 28.2109 38.4731 27.9275 39.2009 27.9275C39.9286 27.9275 40.6277 28.2109 41.15 28.7177C41.6723 29.2244 41.9767 29.9146 41.9987 30.642C41.9987 38.2285 35.309 44.4007 27.087 44.4007Z" fill="#FFB782"/>
<path d="M63.4002 18.5691C64.6684 18.5691 65.9943 19.5491 66.3979 20.5292L73.8973 37.6507L81.0969 22.8351C81.6094 21.5668 82.7623 20.8751 84.0946 20.8751C85.4782 20.8751 86.5735 21.5668 87.15 22.7774L94.4137 37.766L101.85 20.6496C102.427 19.3237 103.407 18.5742 104.963 18.5742C106.981 18.5742 108.826 20.4766 107.846 22.8402L97.642 46.8219C97.1808 48.0325 96.2008 48.4937 94.6955 48.4937C93.3696 48.4937 92.159 48.0325 91.5825 46.8796L84.2099 31.2518L76.6593 46.8168C76.1469 47.9121 74.9939 48.4886 73.5463 48.4886C72.2204 48.4886 71.1827 48.0838 70.5998 46.7591L60.2231 22.8927C59.1918 20.4715 61.4401 18.5691 63.4002 18.5691Z" fill="#264254"/>
<path d="M140.475 33.3848C140.359 42.4356 134.197 48.4887 125.142 48.4887C116.086 48.4887 109.922 42.4356 109.807 33.3848C109.807 24.2187 115.976 17.9927 125.142 17.9927C134.364 17.9927 140.475 24.2187 140.475 33.3848ZM133.73 33.3848C133.73 27.7353 130.329 23.7576 125.147 23.7576C119.965 23.7576 116.564 27.7353 116.564 33.3848C116.564 38.9191 119.965 42.7239 125.147 42.7239C130.329 42.7239 133.73 38.9191 133.73 33.3848Z" fill="#264254"/>
<path d="M160.37 21.3939C160.37 23.2386 159.044 24.3916 156.969 24.3916C152.127 24.3916 150.397 28.0811 150.397 34.0189V44.972C150.397 46.7015 148.956 47.9121 147.226 47.9121C145.209 47.9121 143.883 46.7015 143.883 44.972V21.5092C143.883 19.6644 145.612 18.5691 147.226 18.5691C148.841 18.5691 150.397 19.6068 150.397 21.5092V21.8551C152.069 19.6068 154.317 18.5691 156.969 18.5691C159.038 18.5691 160.37 19.4338 160.37 21.3939Z" fill="#264254"/>
<path d="M182.845 47.912C182.338 47.9031 181.838 47.7851 181.381 47.5661C180.923 47.347 180.518 47.032 180.193 46.6425L170.457 35.8059L168.792 37.3047V44.972C168.792 46.8743 167.062 47.912 165.448 47.912C163.783 47.912 162.22 46.8743 162.22 44.972V13.5536C162.22 9.63354 168.792 9.63354 168.792 13.5536V29.4646L179.444 19.4965C180.136 18.92 181.109 18.5742 181.865 18.5742C183.71 18.5742 185.209 19.9577 185.209 21.5142C185.209 22.2641 184.805 23.0135 183.998 23.7625L174.947 31.7756L185.209 42.9594C187.169 45.3742 185.151 47.912 182.845 47.912Z" fill="#264254"/>
<path d="M192.069 18.5691C193.337 18.5691 194.663 19.5491 195.066 20.5292L202.561 37.6507L209.767 22.8351C210.286 21.5668 211.439 20.8751 212.765 20.8751C214.148 20.8751 215.243 21.5668 215.82 22.7774L223.084 37.766L230.514 20.6445C231.09 19.3185 232.07 18.5691 233.627 18.5691C235.644 18.5691 237.489 20.4715 236.509 22.8351L226.305 46.8168C225.844 48.0274 224.864 48.4886 223.359 48.4886C222.033 48.4886 220.822 48.0274 220.246 46.8744L212.867 31.2518L205.309 46.8168C204.796 47.9121 203.643 48.4886 202.196 48.4886C200.87 48.4886 199.832 48.0838 199.249 46.7591L188.873 22.8927C187.86 20.4715 190.109 18.5691 192.069 18.5691Z" fill="#264254"/>
<path d="M260.679 40.7627C264.194 37.592 268.229 41.9733 265.002 45.0286C262.293 47.6228 258.373 48.5452 254.568 48.4875C245.517 48.4875 239.349 42.5498 239.349 33.9025C239.349 24.4482 245.171 17.9916 254.395 17.9916C263.619 17.9916 268.806 24.0446 268.865 32.9801C268.865 34.8825 268.517 36.439 265.233 36.439H246.029C247.067 40.1862 250.295 42.7803 254.388 42.7803C256.579 42.7816 258.827 42.2051 260.679 40.7627ZM245.978 31.3083H262.753C262.35 26.7541 259.871 23.6988 254.452 23.6988C249.95 23.7 246.779 26.7554 245.972 31.3096L245.978 31.3083Z" fill="#264254"/>
<path d="M277.446 47.912C275.486 47.912 274.16 46.5861 274.16 45.0296V13.496C274.16 11.9395 275.486 10.6136 277.446 10.6136C279.29 10.6136 280.732 11.9395 280.732 13.496V45.0296C280.732 46.5861 279.29 47.912 277.446 47.912Z" fill="#264254"/>
<path d="M287.649 47.912C285.689 47.912 284.363 46.5861 284.363 45.0296V13.496C284.363 11.9395 285.689 10.6136 287.649 10.6136C289.494 10.6136 290.935 11.9395 290.935 13.496V45.0296C290.935 46.5861 289.494 47.912 287.649 47.912Z" fill="#264254"/>
<path d="M302.669 11.1454C302.669 11.3837 302.469 11.6296 302.108 11.6296H300.341L300.351 16.1979C300.351 16.54 300.037 16.7014 299.792 16.7014C299.525 16.7014 299.241 16.54 299.241 16.1979V11.6296H297.483C297.113 11.6296 296.951 11.3837 296.951 11.1454C296.95 11.0768 296.962 11.0086 296.989 10.9454C297.016 10.8821 297.055 10.8253 297.106 10.7786C297.156 10.7319 297.216 10.6965 297.281 10.6747C297.346 10.6529 297.415 10.6452 297.483 10.6522H302.108C302.469 10.6573 302.669 10.8994 302.669 11.1454Z" fill="#264254"/>
<path d="M304.149 10.9366L306.133 14.0419L308.108 10.9276C308.163 10.8434 308.237 10.774 308.325 10.7259C308.413 10.6778 308.512 10.6525 308.612 10.6522C308.682 10.6495 308.753 10.6614 308.819 10.6872C308.884 10.7129 308.944 10.752 308.994 10.8019C309.044 10.8518 309.083 10.9115 309.109 10.9772C309.134 11.043 309.146 11.1133 309.144 11.1838V16.2069C309.144 16.54 308.849 16.7014 308.582 16.7014C308.316 16.7014 308.042 16.54 308.042 16.2069V13.0043L306.633 15.2167C306.583 15.3029 306.511 15.3741 306.424 15.4226C306.337 15.4711 306.239 15.4951 306.139 15.4921C306.035 15.4895 305.933 15.4603 305.844 15.4071C305.754 15.354 305.679 15.2787 305.627 15.1885L304.231 13.0107V16.2005C304.231 16.5336 303.945 16.695 303.68 16.695C303.415 16.695 303.129 16.5336 303.129 16.2005V11.1928C303.128 11.1215 303.142 11.0508 303.169 10.9848C303.196 10.9188 303.236 10.8589 303.286 10.8086C303.337 10.7582 303.397 10.7184 303.463 10.6916C303.529 10.6647 303.6 10.6513 303.671 10.6522C303.768 10.6567 303.862 10.685 303.945 10.7346C304.029 10.7842 304.098 10.8536 304.149 10.9366Z" fill="#264254"/>
</svg>
